ply
format ascii 1.0
comment PCL generated
element vertex 103
property float x
property float y
property float z
property uchar red
property uchar green
property uchar blue
element camera 1
property float view_px
property float view_py
property float view_pz
property float x_axisx
property float x_axisy
property float x_axisz
property float y_axisx
property float y_axisy
property float y_axisz
property float z_axisx
property float z_axisy
property float z_axisz
property float focal
property float scalex
property float scaley
property float centerx
property float centery
property int viewportx
property int viewporty
property float k1
property float k2
end_header
91 669 317 144 154 171
92 669 317 147 156 173
93 669 317 146 155 171
93 669 318 134 143 159
93 670 317 150 159 176
94 669 317 143 152 168
94 669 318 130 139 155
95 669 318 130 140 156
95 669 319 120 129 144
94 670 317 147 157 173
95 670 317 148 157 174
95 671 317 145 154 171
95 670 318 145 155 171
96 669 318 132 142 159
96 669 319 124 133 149
97 669 318 138 148 165
97 669 319 129 140 156
96 670 317 149 158 175
96 671 317 147 156 173
97 671 317 153 161 177
96 670 318 145 154 171
97 670 318 148 157 174
98 669 319 136 146 162
99 669 319 140 149 165
98 671 317 157 165 181
99 671 317 160 167 182
98 670 318 149 158 175
98 671 318 158 166 181
99 670 318 149 158 174
99 671 318 157 165 181
100 669 319 144 152 168
101 669 319 147 154 170
100 671 317 159 166 182
101 671 317 159 167 183
100 670 318 151 159 175
100 670 319 147 155 170
100 671 318 156 164 180
101 670 318 151 159 175
101 670 319 147 154 170
101 671 318 158 166 182
102 669 319 148 155 172
103 669 319 151 159 175
102 671 317 159 167 183
103 671 317 162 169 184
102 670 318 155 162 178
102 670 319 150 157 173
102 671 318 159 166 183
103 670 318 158 166 182
103 670 319 154 161 178
103 671 318 161 169 184
104 669 319 153 162 179
105 669 319 149 159 176
104 671 317 164 171 187
105 671 317 159 167 182
104 670 318 160 168 184
104 671 318 165 172 188
105 670 318 159 167 183
106 669 318 142 152 171
106 669 319 144 153 171
107 669 319 143 150 170
106 671 317 157 164 180
107 670 317 154 160 173
107 671 317 158 164 180
106 670 318 152 159 175
107 670 318 147 154 171
108 669 318 144 151 170
108 669 319 145 152 171
109 669 318 143 151 169
109 669 319 144 151 168
108 670 317 155 161 174
108 671 317 157 162 176
109 670 317 150 156 170
109 671 317 150 155 169
108 670 318 148 154 172
109 670 318 149 155 171
111 669 317 150 156 169
110 669 318 146 153 168
110 669 319 144 150 166
111 669 318 146 152 167
110 670 317 148 153 168
110 671 317 148 154 167
111 670 317 147 152 165
112 669 317 145 150 164
113 669 317 141 147 160
112 669 318 144 150 164
113 669 318 139 145 158
112 670 317 144 149 163
114 669 317 141 146 160
97 672 317 144 153 168
98 672 317 152 159 175
99 672 317 153 160 175
100 672 317 153 160 175
101 672 317 155 163 178
102 672 317 154 161 177
103 672 317 158 165 180
104 672 317 160 166 182
105 672 317 156 161 178
106 672 317 157 162 178
100 669 320 146 153 168
101 669 320 150 157 172
102 669 320 152 159 174
103 669 320 153 160 175
104 669 320 154 161 177
0 0 0 1 0 0 0 1 0 0 0 1 0 0 0 0 0 103 1 0 0
