ply
format ascii 1.0
comment PCL generated
element vertex 197
property float x
property float y
property float z
property uchar red
property uchar green
property uchar blue
element camera 1
property float view_px
property float view_py
property float view_pz
property float x_axisx
property float x_axisy
property float x_axisz
property float y_axisx
property float y_axisy
property float y_axisz
property float z_axisx
property float z_axisy
property float z_axisz
property float focal
property float scalex
property float scaley
property float centerx
property float centery
property int viewportx
property int viewporty
property float k1
property float k2
end_header
296 19 317 89 78 71
297 18 317 90 79 71
297 19 317 89 79 71
298 17 317 79 70 63
299 17 317 75 67 60
298 18 317 88 77 69
298 19 317 89 79 71
299 18 317 87 76 66
299 19 317 90 80 72
299 19 318 90 80 72
296 20 317 90 79 71
297 20 317 90 79 71
297 21 317 91 81 75
297 22 317 88 79 73
298 20 317 90 79 70
298 21 317 91 81 74
299 20 317 89 78 70
299 21 317 91 80 71
299 20 318 89 78 69
299 21 318 91 79 70
298 22 317 90 80 75
299 22 317 91 81 74
299 23 317 93 84 79
300 16 317 70 63 58
300 17 317 73 65 59
301 16 317 72 65 59
301 17 317 72 65 60
301 17 318 75 67 62
300 18 317 85 74 66
300 18 318 86 76 67
300 19 318 92 81 73
301 18 318 86 75 67
301 19 318 92 81 72
302 16 317 74 67 61
302 17 317 74 67 61
303 16 317 77 69 63
302 17 318 78 70 64
303 17 318 81 72 65
302 18 318 86 76 68
302 19 318 93 82 72
303 18 318 87 77 68
303 19 318 93 81 72
303 19 319 93 82 72
300 21 317 92 80 71
300 20 318 89 78 69
300 21 318 92 80 71
301 20 318 90 79 70
301 21 318 92 80 71
300 22 317 91 79 72
300 23 317 95 85 79
301 23 317 95 85 78
300 22 318 91 79 70
301 22 318 91 79 71
301 23 318 94 83 76
302 20 318 91 80 70
302 21 318 93 81 71
303 20 318 92 81 71
303 21 318 94 81 71
302 23 317 96 85 77
303 23 317 97 86 78
302 22 318 92 80 71
302 23 318 95 84 76
303 22 318 93 80 71
303 23 318 98 86 78
300 24 317 80 70 64
301 24 317 80 69 62
302 24 317 77 66 58
303 24 317 77 65 56
303 25 317 72 60 49
305 15 317 75 68 62
306 15 317 76 68 63
304 16 317 78 70 64
305 16 317 77 69 63
304 16 318 80 71 65
304 17 318 82 73 66
305 16 318 80 72 66
305 17 318 82 74 68
304 18 318 83 73 65
304 18 319 88 77 68
304 19 319 93 82 73
305 18 318 88 79 72
305 18 319 90 80 72
305 19 319 93 83 75
306 16 317 77 69 64
307 16 317 75 67 62
306 16 318 80 72 66
306 17 318 82 74 69
307 16 318 79 71 66
307 17 318 81 73 68
306 18 318 91 82 76
306 19 319 94 84 76
307 18 318 91 81 75
307 19 319 94 84 76
304 20 318 92 80 71
304 20 319 93 82 73
304 21 318 95 83 73
305 20 318 93 82 72
305 20 319 93 82 73
305 21 318 96 84 75
304 22 318 96 84 76
304 23 318 99 87 80
305 22 318 98 87 79
305 23 318 99 87 80
306 20 319 93 82 74
306 21 318 95 84 76
307 20 319 94 83 76
307 21 318 95 84 77
307 21 319 95 84 76
306 22 318 98 87 80
306 23 318 98 87 79
307 22 318 97 86 79
307 23 318 98 87 79
308 16 317 72 65 59
309 16 317 70 63 58
309 17 317 73 65 59
308 17 318 79 71 66
309 17 318 80 72 66
308 18 318 92 84 78
308 19 318 94 84 76
308 19 319 94 83 76
309 18 318 93 84 78
309 19 318 94 85 78
309 19 319 94 84 77
310 16 317 68 61 55
310 17 317 78 70 63
311 17 317 83 73 66
310 17 318 84 75 68
311 18 317 93 83 75
310 18 318 94 85 79
310 19 318 94 84 77
311 18 318 95 85 78
311 19 318 95 85 78
308 20 319 94 83 75
308 21 318 95 83 75
308 21 319 95 84 76
309 20 319 94 83 75
309 21 318 96 84 75
309 21 319 95 84 75
308 22 318 94 82 76
308 23 318 97 85 79
309 22 318 93 81 73
309 23 318 95 84 77
310 20 318 94 83 76
310 20 319 94 83 75
310 21 318 96 85 76
310 21 319 96 84 76
311 20 318 95 85 78
311 21 318 98 87 80
310 22 318 93 82 75
310 23 318 94 83 77
311 22 318 95 85 78
311 23 318 99 89 84
304 24 317 78 65 55
304 25 317 73 61 51
305 24 317 78 64 54
305 25 317 74 62 52
306 24 317 78 65 54
306 25 317 76 64 53
307 24 317 76 62 51
307 25 317 78 65 55
306 24 318 84 71 60
307 24 318 87 74 64
308 24 317 76 60 49
308 25 317 78 64 53
309 24 317 74 59 48
309 25 317 77 63 52
308 24 318 83 70 60
309 24 318 82 68 59
310 24 317 73 58 47
310 25 317 77 63 52
311 24 317 72 58 49
311 25 317 75 61 51
310 24 318 81 67 58
311 24 318 82 70 62
312 18 317 95 84 76
312 19 317 96 85 77
313 18 317 96 85 77
313 19 317 96 85 77
312 19 318 94 84 76
314 19 317 95 85 76
313 20 317 95 85 77
313 21 317 96 87 81
312 20 318 95 85 78
312 21 318 97 87 82
313 20 318 95 86 80
313 21 318 96 87 81
312 23 317 92 82 76
313 22 317 98 89 84
313 23 317 92 83 78
312 22 318 98 89 83
312 23 318 101 92 87
314 20 317 95 85 78
314 21 317 96 86 79
314 22 317 95 86 80
314 23 317 87 77 72
312 24 317 72 58 50
313 24 317 70 58 50
0 0 0 1 0 0 0 1 0 0 0 1 0 0 0 0 0 197 1 0 0
