ply
format ascii 1.0
comment PCL generated
element vertex 821
property float x
property float y
property float z
property uchar red
property uchar green
property uchar blue
element camera 1
property float view_px
property float view_py
property float view_pz
property float x_axisx
property float x_axisy
property float x_axisz
property float y_axisx
property float y_axisy
property float y_axisz
property float z_axisx
property float z_axisy
property float z_axisz
property float focal
property float scalex
property float scaley
property float centerx
property float centery
property int viewportx
property int viewporty
property float k1
property float k2
end_header
39 19 317 79 70 64
37 21 317 78 68 61
37 22 317 78 68 61
37 23 317 79 68 61
38 20 317 79 69 63
38 21 317 78 68 61
39 20 317 79 70 64
38 21 318 79 69 62
39 20 318 79 70 64
39 21 318 79 70 63
39 21 319 80 71 64
38 22 317 79 69 61
38 23 317 80 69 62
38 22 318 79 69 62
38 23 318 80 70 63
39 22 319 80 70 64
39 23 319 82 72 66
37 24 317 86 77 73
38 24 317 86 77 73
38 25 317 73 67 63
38 24 318 84 76 72
38 25 318 75 68 64
39 24 319 84 77 73
39 25 318 76 70 66
39 25 319 80 74 71
38 26 317 52 44 38
38 27 317 55 47 42
39 26 317 52 44 38
39 27 317 57 50 46
39 26 318 54 47 40
39 26 319 60 53 48
39 27 318 55 48 43
39 28 317 60 54 51
40 19 317 79 71 64
41 19 317 79 71 65
40 19 318 79 71 65
41 19 318 80 71 65
41 19 319 80 71 66
42 19 317 80 71 65
43 18 317 80 72 66
43 19 317 80 72 66
42 19 318 80 71 66
42 19 319 80 72 66
43 19 318 80 72 66
43 19 319 81 73 67
40 20 318 79 71 64
40 20 319 80 71 65
40 21 319 80 71 65
41 20 319 80 72 66
40 22 319 80 71 65
42 20 319 81 72 66
44 18 317 81 72 66
45 18 317 82 73 67
44 18 318 81 73 67
44 19 318 81 72 67
44 19 319 82 73 67
45 18 318 82 73 67
45 18 319 83 74 68
45 19 319 83 74 68
46 18 317 82 74 68
47 18 317 83 74 68
46 18 318 83 74 68
46 18 319 83 75 69
47 18 318 83 75 69
47 18 319 84 76 70
40 24 319 87 79 76
40 25 319 83 76 73
40 26 319 60 52 47
40 27 318 58 51 47
40 27 319 57 49 44
41 27 319 61 53 48
40 28 317 60 55 52
40 29 317 60 55 53
40 28 318 61 55 52
40 29 318 61 56 53
41 28 319 63 57 53
41 29 318 63 58 55
41 29 319 63 58 55
40 30 317 62 57 55
41 30 317 66 61 59
41 31 317 71 66 65
41 30 318 64 59 57
42 28 319 64 59 55
42 29 319 65 60 57
43 29 319 66 61 58
42 31 317 73 69 68
43 31 317 81 77 78
42 30 318 67 62 61
42 30 319 67 62 60
42 31 318 70 66 65
43 30 318 71 67 66
43 30 319 70 65 64
43 31 318 81 77 77
43 31 319 78 74 74
44 30 319 74 69 68
44 31 318 90 87 88
44 31 319 81 77 78
45 31 318 97 93 95
45 31 319 84 80 81
46 31 318 103 100 104
46 31 319 95 91 93
47 31 318 106 102 106
47 31 319 99 95 97
48 17 317 84 75 69
49 17 317 84 75 69
49 17 318 85 76 70
48 18 317 84 75 69
48 18 318 84 75 69
48 18 319 85 76 70
49 18 318 85 76 70
49 18 319 86 77 71
50 17 317 85 76 70
51 17 317 85 77 70
50 17 318 86 77 71
50 17 319 86 77 71
51 17 318 86 77 71
51 17 319 87 78 72
50 18 318 85 77 70
50 18 319 86 77 71
52 17 317 86 77 71
53 17 317 87 78 71
52 17 318 87 78 71
52 17 319 88 79 72
53 17 318 88 78 72
53 17 319 88 79 73
54 17 317 87 78 72
55 17 317 88 79 72
54 17 318 88 79 72
54 17 319 89 80 73
55 17 318 89 79 73
55 17 319 90 80 73
49 31 317 111 105 107
48 31 318 106 102 105
48 31 319 99 94 97
49 31 318 107 103 105
49 31 319 101 96 98
50 31 317 109 102 102
51 31 317 102 93 90
50 31 318 107 100 101
50 31 319 103 96 97
51 31 318 99 90 90
51 31 319 97 89 90
52 31 317 94 84 82
53 31 317 88 76 76
52 30 319 89 79 78
52 31 318 92 81 80
52 31 319 92 82 81
53 30 319 85 74 72
53 31 318 86 74 74
53 31 319 87 76 75
54 31 317 83 72 72
55 30 317 79 70 68
55 31 317 80 71 70
54 30 318 82 70 70
54 30 319 80 68 67
54 31 318 84 72 72
55 30 318 80 69 68
55 30 319 78 66 65
56 17 317 88 79 72
57 17 317 88 79 72
56 17 318 89 80 73
56 17 319 90 80 73
57 17 318 89 79 72
57 17 319 90 80 73
58 17 317 88 78 72
59 17 317 88 78 71
58 17 318 89 79 72
58 17 319 90 80 73
59 17 318 88 79 72
59 17 319 89 80 73
60 17 317 87 78 71
61 17 317 87 78 71
60 17 318 88 78 71
60 17 319 89 79 72
61 17 318 88 78 71
61 17 319 89 79 72
62 17 317 87 77 71
63 17 317 87 77 70
62 17 318 88 78 71
62 17 319 88 79 72
63 17 318 87 78 71
63 17 319 88 78 71
63 18 319 88 79 72
56 30 317 79 72 70
57 30 317 79 73 72
56 30 318 79 70 67
56 30 319 77 67 63
57 30 318 80 73 70
57 30 319 77 68 63
58 29 319 76 68 63
59 29 318 76 70 68
59 29 319 74 67 63
58 30 317 80 75 74
59 30 317 82 78 78
58 30 318 78 72 70
58 30 319 78 70 66
59 30 318 78 73 71
59 30 319 75 68 65
63 27 319 69 63 59
60 29 317 82 78 79
61 29 317 80 76 77
60 29 318 77 72 71
60 29 319 74 68 65
61 28 319 74 68 65
61 29 318 77 72 71
61 29 319 75 70 67
60 30 317 84 80 81
62 29 317 77 73 73
63 28 317 74 69 68
63 29 317 76 71 71
62 28 318 74 69 68
62 28 319 71 66 63
62 29 318 75 70 69
63 28 318 72 67 65
63 28 319 70 64 60
43 32 317 85 81 82
44 32 317 92 89 91
45 32 317 100 97 100
45 32 318 100 97 99
46 32 317 106 104 107
47 32 317 110 107 110
46 32 318 106 103 106
48 32 317 111 107 110
49 32 317 112 107 109
50 32 317 112 106 105
43 19 320 82 73 68
40 21 320 80 71 65
41 20 320 80 72 66
41 21 320 80 72 66
41 21 321 80 72 67
40 22 320 81 72 65
40 23 320 86 78 73
41 22 320 79 71 66
41 22 321 80 72 68
41 23 321 89 81 76
42 20 320 81 73 67
42 20 321 81 73 68
42 21 321 81 73 68
43 20 320 82 73 68
43 20 321 82 74 68
43 20 322 82 74 68
43 21 322 81 73 68
42 22 321 80 73 69
42 23 321 86 79 75
42 22 322 80 73 69
42 23 322 86 78 74
43 22 322 80 73 68
43 22 323 81 74 69
43 23 322 89 80 75
43 23 323 89 80 74
44 19 320 83 74 68
44 19 321 83 75 69
45 19 320 83 75 69
45 19 321 84 75 69
45 19 322 84 75 70
46 18 320 84 76 70
46 19 320 84 76 70
46 19 321 85 76 70
47 18 320 85 76 70
47 18 321 86 77 71
47 19 321 86 77 71
46 19 322 85 77 71
47 19 322 86 77 71
44 20 321 83 75 69
44 20 322 83 75 69
44 21 322 82 74 69
44 21 323 83 74 69
45 20 322 84 75 70
45 20 323 84 76 70
45 21 323 83 74 69
44 22 323 82 74 69
44 23 323 88 79 73
45 22 323 83 75 69
46 20 322 85 77 71
46 20 323 85 77 71
46 21 323 84 76 70
47 20 323 86 78 72
44 23 324 93 83 76
45 22 324 83 75 69
45 23 324 90 80 74
46 21 324 85 76 71
47 20 324 86 78 72
47 21 324 86 77 72
46 22 324 84 75 70
46 23 324 90 81 74
47 22 324 84 76 70
47 23 324 91 81 74
40 24 320 92 85 82
40 25 320 85 79 77
41 24 320 95 89 87
41 24 321 96 89 86
41 25 320 87 81 79
41 25 321 93 87 85
40 26 320 69 62 59
41 26 320 65 58 53
41 27 320 58 50 44
42 24 321 100 92 90
42 25 321 97 91 89
42 24 322 97 89 85
43 24 322 100 91 88
43 24 323 100 90 86
43 25 322 100 93 90
43 25 323 102 94 92
42 26 321 70 63 59
42 27 320 62 54 48
42 27 321 60 52 46
43 26 321 75 68 64
43 27 321 63 55 49
43 26 322 79 72 68
43 27 322 63 55 48
42 28 320 65 58 54
43 28 320 67 60 56
43 28 321 67 60 55
43 29 320 67 62 59
43 29 321 68 62 59
44 24 323 99 89 85
44 25 323 102 93 90
45 25 323 102 93 90
44 26 322 83 75 71
44 26 323 85 77 72
44 27 322 65 56 50
45 26 323 88 79 74
45 27 322 65 56 49
45 27 323 68 58 51
46 26 323 84 75 69
46 27 323 68 58 51
47 27 323 68 59 51
45 24 324 99 89 84
45 25 324 103 95 90
46 24 324 99 89 83
46 25 324 102 93 88
47 24 324 99 88 82
47 25 324 102 93 87
46 26 324 92 83 77
46 27 324 72 62 55
47 26 324 88 78 72
47 27 324 69 59 51
44 28 321 69 61 56
44 29 320 68 63 60
44 29 321 69 63 59
45 29 321 70 64 60
44 28 322 68 60 55
45 28 322 69 61 55
45 29 322 70 63 58
44 30 320 71 65 63
45 30 320 73 68 66
45 30 321 71 65 63
46 29 321 72 65 61
46 28 322 70 62 56
46 28 323 70 61 55
46 29 322 72 65 60
47 28 323 71 62 55
47 29 322 74 67 62
47 29 323 73 65 60
46 30 320 77 72 71
46 30 321 74 68 64
46 31 320 85 81 81
47 30 320 80 74 73
47 30 321 76 69 67
47 31 320 88 83 84
47 30 322 76 68 64
48 18 320 86 77 71
48 18 321 86 78 71
48 19 321 86 78 71
49 18 320 86 77 71
49 18 321 87 78 72
48 19 322 87 78 72
48 19 323 88 79 73
49 18 322 88 79 72
49 19 322 88 79 73
49 19 323 89 80 73
50 18 320 87 78 72
50 18 321 88 79 72
51 18 320 88 79 72
51 18 321 89 79 73
50 18 322 89 80 73
50 19 322 89 80 73
50 19 323 90 80 74
51 18 322 90 80 74
51 18 323 91 81 74
51 19 323 91 81 74
50 19 324 90 81 74
51 19 324 91 82 75
48 20 323 88 79 72
49 20 323 88 79 73
48 20 324 87 78 72
48 21 324 87 78 72
49 20 324 89 80 73
49 21 324 88 79 73
48 22 324 85 77 71
48 23 324 88 78 71
48 23 325 90 80 72
49 22 324 87 78 72
49 22 325 87 78 72
49 23 325 90 79 71
50 20 324 90 81 74
50 21 324 90 81 74
50 21 325 91 81 75
51 20 324 92 82 75
51 21 324 91 82 75
51 21 325 91 82 75
50 22 325 89 79 72
50 23 325 90 79 71
51 22 325 91 81 74
51 23 325 91 80 73
52 17 320 88 79 73
53 17 320 89 80 73
52 18 320 89 79 73
52 18 321 89 80 73
53 18 320 89 80 73
53 18 321 90 81 74
52 18 322 90 81 74
52 18 323 91 82 75
52 19 323 92 82 75
53 18 322 91 82 75
53 18 323 92 82 75
53 19 323 92 82 75
54 17 320 90 81 74
55 17 320 91 81 74
54 18 320 91 81 74
54 18 321 91 82 74
55 18 320 91 81 74
55 18 321 92 82 75
54 18 322 92 82 75
54 18 323 93 83 75
55 18 322 92 83 75
55 18 323 93 83 75
52 19 324 92 82 75
53 19 324 92 83 75
54 19 324 93 83 76
54 19 325 93 83 76
55 19 324 93 83 76
55 19 325 94 84 76
52 20 324 92 82 75
52 20 325 92 83 76
52 21 325 93 83 76
53 20 324 93 83 76
53 20 325 93 83 76
53 21 325 93 84 76
52 22 325 91 81 74
52 23 325 92 82 74
53 22 325 91 82 75
53 23 325 93 83 75
54 20 325 94 84 76
54 21 325 94 84 76
55 20 325 94 84 76
55 21 325 94 84 77
54 22 325 91 81 75
54 23 325 95 84 77
55 22 325 93 83 76
55 23 325 96 85 76
48 24 324 100 90 83
48 24 325 98 87 80
48 25 324 102 92 87
48 25 325 101 92 86
49 24 325 98 87 80
49 25 325 101 92 86
48 26 324 87 77 71
48 27 324 67 58 49
49 26 324 87 77 70
49 27 324 66 56 48
50 24 325 98 87 79
50 25 325 101 92 86
51 24 325 98 87 80
51 25 325 102 92 86
50 26 324 81 70 62
50 26 325 90 79 73
50 27 324 67 57 48
51 26 325 87 76 70
51 27 324 68 57 48
48 28 323 70 61 55
48 29 322 75 67 62
48 29 323 74 66 60
49 28 323 72 64 57
49 29 323 76 67 62
48 30 320 82 76 76
48 30 321 78 71 70
48 31 320 88 83 84
49 30 321 80 73 71
49 31 320 88 82 83
48 30 322 76 68 65
49 30 322 76 69 64
50 28 323 74 65 58
50 29 323 77 68 62
51 29 323 79 69 62
50 30 320 86 79 78
50 30 321 80 73 71
50 31 320 91 84 84
51 30 320 87 79 78
51 30 321 82 73 69
51 31 320 94 86 86
50 30 322 77 69 64
51 30 322 79 70 65
48 28 324 69 60 52
49 28 324 69 59 53
50 28 324 71 62 55
51 28 324 73 64 56
52 24 325 99 88 82
52 25 325 101 92 86
53 24 325 99 89 83
53 25 325 103 93 88
52 26 325 87 77 70
52 27 324 68 57 49
52 27 325 71 59 51
53 26 325 81 71 64
53 27 324 67 56 48
54 24 325 101 90 84
54 25 325 104 95 89
55 24 325 102 91 84
55 25 325 104 95 89
54 26 325 82 71 65
54 27 324 68 57 48
55 26 325 82 72 66
55 27 324 68 57 49
52 29 323 80 70 63
53 29 322 80 70 62
53 29 323 80 70 62
52 30 320 86 78 75
52 30 321 81 72 67
53 30 320 82 72 69
53 30 321 79 70 64
52 30 322 80 70 64
53 30 322 80 70 63
54 29 322 80 69 61
54 29 323 80 70 62
55 29 322 79 69 61
55 29 323 81 70 62
54 30 320 78 68 64
54 30 321 78 68 61
55 30 320 76 65 61
55 30 321 76 66 59
54 30 322 78 68 60
55 30 322 76 67 59
52 28 324 74 64 57
53 28 324 74 64 55
54 28 324 74 64 55
55 28 324 74 64 55
56 17 320 91 81 74
57 17 320 91 81 74
56 18 320 91 81 74
56 18 321 92 82 75
57 18 320 91 81 74
57 18 321 92 82 74
56 18 322 93 83 75
56 18 323 93 83 76
57 18 322 92 82 75
57 18 323 93 83 75
58 17 320 91 81 73
59 17 320 90 81 73
58 18 320 91 81 74
58 18 321 91 81 74
59 18 320 91 81 74
59 18 321 91 81 74
58 18 322 92 82 75
58 18 323 93 83 75
59 18 322 92 82 74
59 18 323 93 83 75
56 19 324 94 83 76
56 19 325 94 84 76
57 19 324 94 83 76
57 19 325 94 84 76
58 19 324 94 84 76
58 19 325 95 84 77
59 19 324 94 84 76
59 19 325 94 84 77
56 20 325 94 84 77
56 21 325 95 84 77
57 20 325 94 84 77
57 21 325 95 85 77
56 22 325 94 84 77
56 23 325 97 86 77
57 22 325 95 85 77
57 23 325 98 86 78
58 20 325 95 85 77
58 21 325 96 85 78
59 20 325 96 85 78
59 21 325 97 86 79
58 22 325 96 85 78
58 23 325 99 88 80
59 22 325 98 86 78
59 23 325 101 90 82
60 17 320 90 80 73
61 17 320 89 79 72
60 18 320 90 80 73
60 18 321 91 81 73
61 18 320 90 80 73
61 18 321 90 80 73
60 18 322 92 82 74
60 18 323 92 82 75
60 19 323 93 83 75
61 18 322 91 81 74
61 19 322 92 82 74
61 19 323 93 82 75
62 18 320 89 79 72
62 18 321 90 80 73
63 18 320 89 79 72
63 18 321 90 80 73
63 19 321 90 80 73
62 18 322 91 81 73
62 19 322 91 81 74
62 19 323 92 82 75
63 19 322 91 81 74
60 19 324 94 84 76
61 19 324 94 84 76
62 20 323 93 83 76
63 20 322 92 82 75
63 20 323 94 84 76
63 21 323 96 85 77
63 22 323 94 84 76
63 23 323 94 85 79
60 20 325 96 85 78
60 21 325 97 87 79
61 20 324 95 84 77
61 20 325 96 86 78
61 21 324 97 86 78
61 21 325 97 86 78
60 22 325 98 87 79
60 23 325 100 89 81
61 22 325 97 86 78
61 23 324 100 90 84
61 23 325 100 89 83
62 20 324 95 85 77
62 21 324 96 86 78
63 21 324 96 85 78
62 22 324 95 84 76
62 23 324 97 87 81
63 22 324 93 83 75
63 23 324 95 85 78
59 27 323 70 59 50
56 24 325 101 91 84
56 25 325 103 94 89
57 24 325 101 91 85
57 25 325 101 93 90
56 26 325 80 71 65
56 27 324 68 57 48
57 26 324 72 62 56
57 26 325 86 78 73
57 27 324 68 57 49
58 24 325 100 91 87
58 25 325 100 93 90
59 24 325 101 92 88
59 25 324 96 89 86
59 25 325 100 92 90
58 26 324 76 68 62
58 26 325 89 82 79
58 27 324 68 57 48
59 26 324 77 69 62
59 27 324 67 56 48
57 29 321 76 66 58
56 28 323 80 70 61
56 29 322 78 68 61
56 29 323 81 71 63
57 28 323 79 68 59
57 29 322 78 67 59
57 29 323 81 71 62
56 30 320 75 64 60
56 30 321 75 66 59
57 30 320 75 65 60
57 30 321 75 66 59
56 30 322 77 67 59
58 29 320 76 67 60
58 29 321 76 66 59
59 29 320 75 66 60
59 29 321 77 68 61
58 28 323 77 66 57
58 29 322 79 68 59
59 28 323 77 66 57
59 29 322 80 70 61
58 30 320 76 67 60
56 28 324 74 64 55
57 28 324 71 61 52
58 28 324 72 61 52
60 26 323 66 57 50
60 27 322 72 61 51
60 27 323 69 59 50
61 26 323 69 60 54
61 27 322 71 61 52
61 27 323 67 57 47
62 25 323 85 78 74
63 24 323 93 86 83
63 25 322 79 71 66
63 25 323 84 77 74
62 27 321 71 62 56
63 26 321 66 57 50
63 27 320 69 62 56
63 27 321 69 60 54
62 26 322 66 56 47
62 26 323 71 63 57
62 27 322 68 59 50
63 26 322 69 59 52
60 24 325 101 93 89
60 25 324 97 90 87
61 24 324 99 91 88
61 24 325 101 92 88
61 25 324 91 84 81
60 26 324 75 67 61
61 26 324 77 69 65
62 24 324 98 90 87
62 25 324 93 86 83
60 28 321 76 68 61
60 29 320 74 66 60
60 29 321 76 67 61
61 28 320 73 65 61
61 28 321 74 65 59
60 28 322 77 66 58
60 28 323 73 61 51
60 29 322 78 69 62
61 28 322 74 64 57
62 28 320 71 64 60
62 28 321 72 64 59
64 17 317 86 77 70
65 17 317 85 76 69
64 17 318 87 77 70
64 17 319 87 78 71
65 17 318 86 76 70
64 18 318 86 77 70
64 18 319 87 78 71
65 18 318 86 76 70
65 18 319 86 77 70
65 19 319 87 78 71
66 17 317 85 76 69
66 18 317 85 76 69
67 18 317 84 75 69
66 18 318 85 76 69
66 18 319 86 76 70
66 19 319 86 77 70
67 18 318 84 75 69
67 19 318 84 75 69
67 19 319 85 76 69
66 20 319 86 76 70
67 20 319 84 75 69
67 21 319 85 76 70
66 23 319 99 90 85
67 22 319 90 81 76
67 23 318 90 81 77
67 23 319 95 87 81
68 19 317 83 74 68
68 19 318 84 75 69
68 20 317 82 73 68
68 21 317 81 75 71
69 20 317 81 73 69
69 21 317 81 74 71
68 20 318 83 74 69
68 21 318 82 75 71
68 22 317 84 78 75
68 23 317 86 80 76
69 22 317 83 77 74
68 22 318 86 78 75
68 23 318 88 80 76
65 25 319 67 60 55
65 27 317 68 62 59
64 26 319 66 58 52
64 27 318 69 63 59
64 27 319 68 61 57
65 26 319 64 57 51
65 27 318 67 61 57
65 27 319 67 60 56
67 24 317 68 62 57
67 25 317 60 53 48
66 24 319 86 78 75
66 25 318 62 54 49
66 25 319 69 62 57
67 24 318 77 70 66
67 24 319 84 76 73
67 25 318 64 57 51
66 27 317 68 62 58
67 26 317 62 56 51
67 27 317 66 60 56
66 26 318 64 57 52
66 26 319 63 56 51
66 27 318 67 60 55
67 26 318 62 56 51
64 28 317 72 67 65
65 28 317 69 64 61
64 28 318 70 65 62
68 24 317 73 66 62
68 25 317 60 54 49
64 18 320 88 79 71
64 19 320 89 79 72
64 19 321 89 79 72
65 19 320 88 78 71
65 19 321 89 79 72
64 19 322 91 81 73
66 19 320 87 78 71
64 20 321 90 80 72
65 20 320 88 78 71
65 20 321 89 79 72
65 21 321 88 78 71
64 20 322 92 82 74
64 20 323 94 84 77
64 21 322 92 82 74
64 21 323 96 85 78
65 20 322 91 81 74
65 21 322 90 80 72
65 22 321 92 81 74
65 23 321 99 91 86
64 22 322 91 80 72
64 22 323 92 81 73
64 23 322 92 84 79
64 23 323 93 84 79
65 22 322 90 80 72
65 23 322 95 86 81
66 20 320 87 78 71
66 21 320 87 78 71
66 21 321 88 78 71
66 22 320 93 83 77
66 22 321 93 83 77
66 23 320 100 91 86
64 24 321 92 85 82
64 25 321 79 71 66
65 24 320 96 89 85
65 24 321 98 91 88
65 25 320 76 68 62
65 25 321 84 77 72
64 24 322 93 86 83
64 24 323 91 84 82
64 25 322 84 76 72
64 26 320 65 56 49
64 26 321 68 58 51
65 26 320 66 57 49
66 24 320 93 85 82
0 0 0 1 0 0 0 1 0 0 0 1 0 0 0 0 0 821 1 0 0
